<?xml version="1.0"?>
<svg id="Ebene_1" data-name="Ebene 1" xmlns="http://www.w3.org/2000/svg" viewBox="0 0 937.68 566.93">
  <defs>
    
  </defs>
  <g>
    <path class="cls-1" d="M269.54,172.37c6.33,0,11.9,1.34,16.7,4.01,4.79,2.67,8.5,6.29,11.11,10.84,2.61,4.55,3.92,9.56,3.92,15.04s-1.31,10.48-3.92,15.03c-2.62,4.55-6.32,8.16-11.11,10.84-4.8,2.67-10.36,4.01-16.7,4.01h-23.43v-59.77h23.43ZM280.05,220.24c3.2-1.78,5.67-4.24,7.42-7.38,1.75-3.14,2.63-6.67,2.63-10.61s-.88-7.47-2.63-10.61c-1.75-3.14-4.23-5.6-7.42-7.38-3.2-1.78-6.86-2.67-10.98-2.67h-12.27v41.32h12.27c4.12,0,7.78-.89,10.98-2.67Z"></path>
    <path class="cls-1" d="M318.33,230.21c-3.75-1.91-6.75-4.64-8.99-8.21-2.24-3.57-3.37-7.78-3.37-12.64,0-4.3,1.03-8.29,3.09-11.95,2.06-3.66,4.89-6.55,8.48-8.67,3.6-2.12,7.58-3.18,11.95-3.18,4,0,7.67,1.06,11.02,3.18,3.35,2.12,6.01,4.98,7.98,8.58,1.97,3.6,2.95,7.49,2.95,11.67,0,.98-.03,1.83-.09,2.54-.06.71-.12,1.18-.18,1.43h-34.59c.74,3.51,2.4,6.23,4.98,8.16,2.58,1.94,5.65,2.9,9.22,2.9,2.34,0,4.64-.34,6.92-1.02,2.27-.68,4.33-1.66,6.18-2.95l4.06,7.56c-2.58,1.78-5.37,3.14-8.35,4.06-2.99.92-5.98,1.38-8.99,1.38-4.43,0-8.52-.95-12.27-2.86ZM337.24,197.51c-2.34-2-5.11-3-8.3-3-2.95,0-5.6,1-7.93,3-2.34,2-3.85,4.63-4.52,7.89h25c-.49-3.26-1.91-5.89-4.24-7.89Z"></path>
    <path class="cls-1" d="M363.53,229.19c-2.28-2.58-3.41-6.49-3.41-11.71v-22.6h-6.73v-8.39h6.73v-8.95l10.24-2.12v11.07h13.74v8.39h-13.74v22.87c0,2.28.46,3.92,1.38,4.94.92,1.02,2.09,1.52,3.51,1.52,1.04,0,2.06-.17,3.04-.51.98-.34,1.78-.68,2.4-1.02.61-.34,1.02-.57,1.2-.69l3.04,7.65c-3.5,2.28-7.16,3.41-10.98,3.41-4.67,0-8.15-1.29-10.42-3.87Z"></path>
    <path class="cls-1" d="M399.04,230.21c-3.75-1.91-6.75-4.64-8.99-8.21-2.24-3.57-3.37-7.78-3.37-12.64,0-4.3,1.03-8.29,3.09-11.95,2.06-3.66,4.89-6.55,8.48-8.67,3.6-2.12,7.58-3.18,11.95-3.18,4,0,7.67,1.06,11.02,3.18,3.35,2.12,6.01,4.98,7.98,8.58,1.97,3.6,2.95,7.49,2.95,11.67,0,.98-.03,1.83-.09,2.54-.06.71-.12,1.18-.18,1.43h-34.59c.74,3.51,2.4,6.23,4.98,8.16,2.58,1.94,5.65,2.9,9.22,2.9,2.34,0,4.64-.34,6.92-1.02,2.27-.68,4.33-1.66,6.18-2.95l4.06,7.56c-2.58,1.78-5.37,3.14-8.35,4.06-2.99.92-5.98,1.38-8.99,1.38-4.43,0-8.52-.95-12.27-2.86ZM417.95,197.51c-2.34-2-5.11-3-8.3-3-2.95,0-5.6,1-7.93,3-2.34,2-3.85,4.63-4.52,7.89h25c-.49-3.26-1.91-5.89-4.24-7.89Z"></path>
    <path class="cls-1" d="M451.89,186.48v9.04c1.05-2.71,2.94-5.04,5.67-7.01,2.73-1.97,6.35-2.95,10.84-2.95v11.16c-5.23,0-9.28,1.35-12.17,4.06-2.89,2.71-4.34,6.95-4.34,12.73v18.63h-10.24v-45.66h10.24Z"></path>
    <path class="cls-1" d="M486.66,186.48v6.73c1.23-2.21,3.08-4.04,5.54-5.49,2.46-1.44,5.07-2.17,7.84-2.17,3.56,0,6.55.74,8.95,2.21,2.4,1.48,4.21,3.63,5.44,6.46,1.48-2.58,3.63-4.67,6.46-6.27,2.83-1.6,5.66-2.4,8.48-2.4,11.56,0,17.34,6.76,17.34,20.29v26.29h-10.24v-24.9c0-3.75-.64-6.66-1.94-8.72-1.29-2.06-3.78-3.09-7.47-3.09-3.2,0-5.72,1.09-7.56,3.28-1.85,2.18-2.77,4.87-2.77,8.07v25.37h-10.24v-24.9c0-3.75-.65-6.66-1.94-8.72-1.29-2.06-3.78-3.09-7.47-3.09-3.26,0-5.81,1.17-7.66,3.51-1.84,2.34-2.77,5.17-2.77,8.49v24.72h-10.24v-45.66h10.24Z"></path>
    <path class="cls-1" d="M557.82,178.05c-1.2-1.2-1.8-2.66-1.8-4.38s.6-3.2,1.8-4.43c1.2-1.23,2.66-1.84,4.38-1.84s3.2.61,4.43,1.84c1.23,1.23,1.84,2.71,1.84,4.43s-.61,3.18-1.84,4.38c-1.23,1.2-2.71,1.8-4.43,1.8s-3.18-.6-4.38-1.8ZM567.37,186.48v45.66h-10.24v-45.66h10.24Z"></path>
    <path class="cls-1" d="M588.68,186.48v6.55c1.66-2.46,3.75-4.32,6.27-5.58,2.52-1.26,5.35-1.89,8.49-1.89,5.9,0,10.11,1.77,12.63,5.3,2.52,3.54,3.78,8.56,3.78,15.08v26.19h-10.24v-24.9c0-4.06-.65-7.04-1.94-8.95-1.29-1.91-3.75-2.86-7.38-2.86-3.38,0-6.17,1.2-8.35,3.6-2.18,2.4-3.27,5.47-3.27,9.22v23.89h-10.24v-45.66h10.24Z"></path>
    <path class="cls-1" d="M630.97,178.05c-1.2-1.2-1.8-2.66-1.8-4.38s.6-3.2,1.8-4.43c1.2-1.23,2.66-1.84,4.38-1.84s3.19.61,4.42,1.84c1.23,1.23,1.85,2.71,1.85,4.43s-.62,3.18-1.85,4.38c-1.23,1.2-2.71,1.8-4.42,1.8s-3.18-.6-4.38-1.8ZM640.51,186.48v45.66h-10.24v-45.66h10.24Z"></path>
    <path class="cls-1" d="M656.52,230.99c-3.17-1.38-5.61-2.9-7.33-4.56l3.87-8.39c4.49,3.63,9.32,5.44,14.48,5.44,2.34,0,4.43-.43,6.27-1.29,1.84-.86,2.76-2.03,2.76-3.5,0-1.29-.61-2.27-1.84-2.95-1.23-.68-2.63-1.23-4.2-1.66-1.57-.43-2.6-.71-3.09-.83-3.51-.98-6.37-1.97-8.58-2.95-2.21-.98-4.01-2.35-5.39-4.1-1.38-1.75-2.08-4.04-2.08-6.87s.85-5.29,2.54-7.38c1.69-2.09,3.86-3.67,6.5-4.75,2.64-1.08,5.35-1.61,8.12-1.61,3.2,0,6.04.38,8.53,1.15,2.49.77,5.09,1.95,7.79,3.55l-3.78,8.3c-4-2.27-8.15-3.41-12.45-3.41-1.78,0-3.37.37-4.75,1.11-1.38.74-2.08,1.69-2.08,2.86,0,1.42.63,2.41,1.89,3,1.26.59,3.24,1.15,5.95,1.71,5.17,1.11,9.35,2.77,12.54,4.98,3.2,2.21,4.8,5.44,4.8,9.68,0,3.32-.98,6.07-2.95,8.26-1.97,2.18-4.44,3.78-7.42,4.8-2.99,1.02-6.01,1.52-9.09,1.52-4.18,0-7.85-.69-11.02-2.08Z"></path>
    <path class="cls-1" d="M702.22,229.19c-2.28-2.58-3.41-6.49-3.41-11.71v-22.6h-6.73v-8.39h6.73v-8.95l10.24-2.12v11.07h13.74v8.39h-13.74v22.87c0,2.28.46,3.92,1.38,4.94.92,1.02,2.09,1.52,3.51,1.52,1.04,0,2.06-.17,3.04-.51.98-.34,1.78-.68,2.4-1.02.61-.34,1.02-.57,1.2-.69l3.04,7.65c-3.5,2.28-7.16,3.41-10.98,3.41-4.67,0-8.15-1.29-10.42-3.87Z"></path>
    <path class="cls-1" d="M731.97,178.05c-1.2-1.2-1.8-2.66-1.8-4.38s.6-3.2,1.8-4.43c1.2-1.23,2.66-1.84,4.38-1.84s3.19.61,4.42,1.84c1.23,1.23,1.85,2.71,1.85,4.43s-.62,3.18-1.85,4.38c-1.23,1.2-2.71,1.8-4.42,1.8s-3.18-.6-4.38-1.8ZM741.51,186.48v45.66h-10.24v-45.66h10.24Z"></path>
    <path class="cls-1" d="M759.36,229.93c-3.72-2.09-6.66-4.95-8.81-8.58-2.15-3.63-3.23-7.62-3.23-11.99s1.07-8.36,3.23-11.99c2.15-3.63,5.09-6.5,8.81-8.62,3.72-2.12,7.8-3.18,12.22-3.18,3.07,0,6.01.51,8.81,1.52,2.8,1.02,5.3,2.48,7.52,4.38l-6.36,7.29c-2.4-2.21-5.66-3.32-9.78-3.32s-7.41,1.31-10.05,3.92c-2.64,2.62-3.97,5.95-3.97,10.01s1.31,7.3,3.92,9.92c2.61,2.61,6.07,3.92,10.38,3.92,2.15,0,4.21-.35,6.18-1.06,1.96-.71,3.63-1.68,4.98-2.91l5.63,7.75c-2.27,1.91-4.9,3.4-7.89,4.47-2.98,1.07-6.1,1.61-9.36,1.61-4.43,0-8.5-1.04-12.22-3.14Z"></path>
    <path class="cls-1" d="M258.87,308.14c-4.8-2.74-8.56-6.47-11.3-11.21-2.74-4.73-4.1-9.93-4.1-15.59s1.36-10.75,4.1-15.45c2.74-4.7,6.5-8.42,11.3-11.16,4.79-2.74,10.15-4.1,16.05-4.1,3.81,0,7.46.61,10.93,1.84,3.47,1.23,6.53,2.95,9.18,5.17l-6.18,7.19c-3.87-3.01-8.27-4.52-13.19-4.52-4,0-7.61.95-10.84,2.86-3.23,1.91-5.73,4.46-7.52,7.65-1.78,3.2-2.67,6.7-2.67,10.51s.89,7.35,2.67,10.61c1.78,3.26,4.23,5.84,7.33,7.75,3.1,1.91,6.56,2.86,10.38,2.86,2.89,0,5.63-.51,8.21-1.52,2.58-1.02,4.86-2.48,6.82-4.38l6.55,7.38c-2.83,2.58-6.1,4.6-9.82,6.04-3.72,1.44-7.67,2.17-11.86,2.17-5.9,0-11.25-1.37-16.05-4.1Z"></path>
    <path class="cls-1" d="M310.39,309.06c-3.72-2.12-6.66-4.99-8.81-8.62-2.15-3.63-3.23-7.59-3.23-11.9s1.07-8.36,3.23-11.99c2.15-3.63,5.09-6.5,8.81-8.62,3.72-2.12,7.79-3.18,12.22-3.18s8.5,1.06,12.22,3.18c3.72,2.12,6.66,5,8.81,8.62,2.15,3.63,3.23,7.63,3.23,11.99s-1.07,8.27-3.23,11.9c-2.15,3.63-5.09,6.5-8.81,8.62-3.72,2.12-7.8,3.18-12.22,3.18s-8.5-1.06-12.22-3.18ZM329.67,300.58c2.12-1.2,3.78-2.86,4.98-4.98,1.2-2.12,1.8-4.47,1.8-7.06s-.6-5.03-1.8-7.15c-1.2-2.12-2.86-3.78-4.98-4.98-2.12-1.2-4.47-1.8-7.06-1.8s-4.93.6-7.06,1.8c-2.12,1.2-3.78,2.86-4.98,4.98-1.2,2.12-1.8,4.51-1.8,7.15s.6,4.94,1.8,7.06c1.2,2.12,2.86,3.78,4.98,4.98,2.12,1.2,4.48,1.8,7.06,1.8s4.94-.6,7.06-1.8Z"></path>
    <path class="cls-1" d="M364.57,265.67v6.73c1.23-2.21,3.08-4.04,5.54-5.49,2.46-1.44,5.07-2.17,7.84-2.17,3.56,0,6.55.74,8.95,2.21,2.4,1.48,4.21,3.63,5.44,6.46,1.48-2.58,3.63-4.67,6.46-6.27,2.83-1.6,5.66-2.4,8.48-2.4,11.56,0,17.34,6.76,17.34,20.29v26.29h-10.24v-24.9c0-3.75-.64-6.66-1.94-8.72-1.29-2.06-3.78-3.09-7.47-3.09-3.2,0-5.72,1.09-7.56,3.28-1.85,2.18-2.77,4.87-2.77,8.07v25.37h-10.24v-24.9c0-3.75-.65-6.66-1.94-8.72-1.29-2.06-3.78-3.09-7.47-3.09-3.26,0-5.81,1.17-7.66,3.51-1.84,2.34-2.77,5.17-2.77,8.49v24.72h-10.24v-45.66h10.24Z"></path>
    <path class="cls-1" d="M445.1,265.67v6.73c1.23-2.21,3.07-4.04,5.53-5.49,2.46-1.44,5.08-2.17,7.84-2.17,3.57,0,6.55.74,8.95,2.21,2.4,1.48,4.21,3.63,5.44,6.46,1.48-2.58,3.63-4.67,6.45-6.27,2.83-1.6,5.66-2.4,8.49-2.4,11.56,0,17.34,6.76,17.34,20.29v26.29h-10.24v-24.9c0-3.75-.64-6.66-1.94-8.72-1.29-2.06-3.78-3.09-7.47-3.09-3.2,0-5.72,1.09-7.56,3.28-1.84,2.18-2.77,4.87-2.77,8.07v25.37h-10.24v-24.9c0-3.75-.64-6.66-1.94-8.72-1.29-2.06-3.78-3.09-7.47-3.09-3.26,0-5.81,1.17-7.65,3.51-1.85,2.34-2.77,5.17-2.77,8.49v24.72h-10.24v-45.66h10.24Z"></path>
    <path class="cls-1" d="M518.66,307.5c-2.62-3.17-3.92-7.85-3.92-14.07v-27.76h10.24v26.29c0,3.57.8,6.2,2.4,7.89,1.6,1.69,3.99,2.54,7.19,2.54,3.38,0,6.04-1.21,7.98-3.64,1.94-2.43,2.91-5.36,2.91-8.81v-24.26h10.24v45.66h-9.68v-7.01c-1.35,2.4-3.41,4.32-6.18,5.76-2.77,1.44-5.6,2.17-8.48,2.17-5.84,0-10.07-1.58-12.68-4.75Z"></path>
    <path class="cls-1" d="M576.81,265.67v6.55c1.66-2.46,3.75-4.32,6.27-5.58,2.52-1.26,5.35-1.89,8.48-1.89,5.9,0,10.12,1.77,12.64,5.3,2.52,3.54,3.78,8.56,3.78,15.08v26.19h-10.24v-24.9c0-4.06-.64-7.04-1.94-8.95-1.29-1.91-3.75-2.86-7.38-2.86-3.38,0-6.17,1.2-8.35,3.6-2.19,2.4-3.28,5.47-3.28,9.22v23.89h-10.24v-45.66h10.24Z"></path>
    <path class="cls-1" d="M618.92,257.23c-1.2-1.2-1.8-2.66-1.8-4.38s.6-3.2,1.8-4.43,2.66-1.84,4.38-1.84,3.19.61,4.42,1.84c1.23,1.23,1.85,2.71,1.85,4.43s-.62,3.18-1.85,4.38c-1.23,1.2-2.71,1.8-4.42,1.8s-3.18-.6-4.38-1.8ZM628.46,265.67v45.66h-10.24v-45.66h10.24Z"></path>
    <path class="cls-1" d="M647.8,309.11c-3.72-2.09-6.66-4.95-8.81-8.58-2.15-3.63-3.23-7.62-3.23-11.99s1.07-8.36,3.23-11.99c2.15-3.63,5.09-6.5,8.81-8.62,3.72-2.12,7.8-3.18,12.22-3.18,3.07,0,6.01.51,8.81,1.52,2.8,1.02,5.3,2.48,7.52,4.38l-6.36,7.29c-2.4-2.21-5.66-3.32-9.78-3.32s-7.41,1.31-10.05,3.92c-2.64,2.62-3.97,5.95-3.97,10.01s1.31,7.3,3.92,9.92c2.61,2.61,6.07,3.92,10.38,3.92,2.15,0,4.21-.35,6.18-1.06,1.96-.71,3.63-1.68,4.98-2.91l5.63,7.75c-2.27,1.91-4.9,3.4-7.89,4.47-2.98,1.07-6.1,1.61-9.36,1.61-4.43,0-8.5-1.04-12.22-3.14Z"></path>
    <path class="cls-1" d="M690.41,309.06c-3.23-2.12-5.73-4.98-7.52-8.58-1.78-3.6-2.67-7.58-2.67-11.94s.89-8.36,2.67-11.99c1.78-3.63,4.29-6.5,7.52-8.62,3.23-2.12,6.87-3.18,10.93-3.18,3.07,0,5.93.59,8.58,1.75,2.64,1.17,4.86,2.83,6.64,4.98v-5.81h10.24v45.66h-10.24v-5.72c-1.78,2.15-4,3.8-6.64,4.93-2.64,1.14-5.51,1.71-8.58,1.71-4.06,0-7.7-1.06-10.93-3.18ZM712.96,298.5c2.4-2.58,3.6-5.9,3.6-9.96s-1.2-7.32-3.6-9.96c-2.4-2.64-5.41-3.97-9.04-3.97-3.87,0-7.05,1.32-9.54,3.97-2.49,2.65-3.73,5.97-3.73,9.96s1.24,7.3,3.73,9.92c2.49,2.61,5.67,3.92,9.54,3.92,3.63,0,6.64-1.29,9.04-3.87Z"></path>
    <path class="cls-1" d="M743.95,308.37c-2.28-2.58-3.41-6.49-3.41-11.71v-22.6h-6.73v-8.39h6.73v-8.95l10.24-2.12v11.07h13.74v8.39h-13.74v22.87c0,2.28.46,3.92,1.38,4.94.92,1.02,2.09,1.52,3.51,1.52,1.04,0,2.06-.17,3.04-.51.98-.34,1.78-.68,2.4-1.02.61-.34,1.02-.57,1.2-.69l3.04,7.65c-3.5,2.28-7.16,3.41-10.98,3.41-4.67,0-8.15-1.29-10.42-3.87Z"></path>
    <path class="cls-1" d="M773.52,257.23c-1.2-1.2-1.8-2.66-1.8-4.38s.6-3.2,1.8-4.43c1.2-1.23,2.66-1.84,4.38-1.84s3.19.61,4.42,1.84c1.23,1.23,1.85,2.71,1.85,4.43s-.62,3.18-1.85,4.38c-1.23,1.2-2.71,1.8-4.42,1.8s-3.18-.6-4.38-1.8ZM783.06,265.67v45.66h-10.24v-45.66h10.24Z"></path>
    <path class="cls-1" d="M802.57,309.06c-3.72-2.12-6.66-4.99-8.81-8.62-2.15-3.63-3.23-7.59-3.23-11.9s1.07-8.36,3.23-11.99c2.15-3.63,5.09-6.5,8.81-8.62,3.72-2.12,7.8-3.18,12.22-3.18s8.5,1.06,12.22,3.18c3.72,2.12,6.66,5,8.81,8.62,2.15,3.63,3.23,7.63,3.23,11.99s-1.08,8.27-3.23,11.9c-2.15,3.63-5.09,6.5-8.81,8.62-3.72,2.12-7.79,3.18-12.22,3.18s-8.5-1.06-12.22-3.18ZM821.85,300.58c2.12-1.2,3.78-2.86,4.98-4.98,1.2-2.12,1.8-4.47,1.8-7.06s-.6-5.03-1.8-7.15c-1.2-2.12-2.86-3.78-4.98-4.98-2.12-1.2-4.47-1.8-7.05-1.8s-4.94.6-7.06,1.8c-2.12,1.2-3.78,2.86-4.98,4.98-1.2,2.12-1.8,4.51-1.8,7.15s.6,4.94,1.8,7.06c1.2,2.12,2.86,3.78,4.98,4.98,2.12,1.2,4.47,1.8,7.06,1.8s4.93-.6,7.05-1.8Z"></path>
    <path class="cls-1" d="M856.76,265.67v6.55c1.66-2.46,3.75-4.32,6.27-5.58,2.52-1.26,5.35-1.89,8.48-1.89,5.9,0,10.12,1.77,12.64,5.3,2.52,3.54,3.78,8.56,3.78,15.08v26.19h-10.24v-24.9c0-4.06-.64-7.04-1.94-8.95-1.29-1.91-3.75-2.86-7.38-2.86-3.38,0-6.17,1.2-8.35,3.6-2.19,2.4-3.28,5.47-3.28,9.22v23.89h-10.24v-45.66h10.24Z"></path>
    <path class="cls-1" d="M271.17,330.16c5.54,0,10.29,1.02,14.25,3.04,3.97,2.03,6.96,4.77,8.99,8.21,2.03,3.44,3.04,7.32,3.04,11.62s-1.08,7.92-3.23,11.39c-2.15,3.47-5.17,6.13-9.04,7.98l13.19,17.52h-12.45l-10.42-14.57c-1.85.31-3.63.46-5.35.46h-13.56v14.11h-10.7v-59.77h25.27ZM279.15,364.8c2.24-1.2,3.98-2.84,5.21-4.94,1.23-2.09,1.84-4.37,1.84-6.82s-.62-4.83-1.84-6.92c-1.23-2.09-2.95-3.75-5.17-4.98-2.21-1.23-4.7-1.84-7.47-1.84h-15.13v27.3h15.03c2.77,0,5.27-.6,7.52-1.8Z"></path>
    <path class="cls-1" d="M314.52,387.99c-3.75-1.91-6.75-4.64-8.99-8.21-2.24-3.57-3.37-7.78-3.37-12.64,0-4.3,1.03-8.29,3.09-11.95,2.06-3.66,4.89-6.55,8.48-8.67,3.6-2.12,7.58-3.18,11.95-3.18,4,0,7.67,1.06,11.02,3.18,3.35,2.12,6.01,4.98,7.98,8.58,1.97,3.6,2.95,7.49,2.95,11.67,0,.98-.03,1.83-.09,2.54-.06.71-.12,1.18-.18,1.43h-34.59c.74,3.51,2.4,6.23,4.98,8.16,2.58,1.94,5.65,2.9,9.22,2.9,2.34,0,4.64-.34,6.92-1.02,2.27-.68,4.33-1.66,6.18-2.95l4.06,7.56c-2.58,1.78-5.37,3.14-8.35,4.06-2.99.92-5.98,1.38-8.99,1.38-4.43,0-8.52-.95-12.27-2.86ZM333.43,355.3c-2.34-2-5.11-3-8.3-3-2.95,0-5.6,1-7.93,3-2.34,2-3.85,4.63-4.52,7.89h25c-.49-3.26-1.91-5.89-4.24-7.89Z"></path>
    <path class="cls-1" d="M360.41,388.78c-3.17-1.38-5.61-2.9-7.33-4.56l3.88-8.39c4.49,3.63,9.32,5.44,14.48,5.44,2.34,0,4.43-.43,6.27-1.29,1.85-.86,2.77-2.03,2.77-3.5,0-1.29-.62-2.27-1.85-2.95-1.23-.68-2.63-1.23-4.2-1.66-1.57-.43-2.6-.71-3.09-.83-3.51-.98-6.36-1.97-8.58-2.95-2.21-.98-4.01-2.35-5.4-4.1-1.38-1.75-2.08-4.04-2.08-6.87s.85-5.29,2.54-7.38c1.69-2.09,3.86-3.67,6.5-4.75,2.64-1.08,5.35-1.61,8.12-1.61,3.19,0,6.04.38,8.53,1.15,2.49.77,5.09,1.95,7.8,3.55l-3.78,8.3c-4-2.27-8.15-3.41-12.45-3.41-1.78,0-3.37.37-4.75,1.11-1.38.74-2.08,1.69-2.08,2.86,0,1.42.63,2.41,1.89,3,1.26.59,3.24,1.15,5.95,1.71,5.17,1.11,9.35,2.77,12.54,4.98,3.2,2.21,4.79,5.44,4.79,9.68,0,3.32-.98,6.07-2.95,8.26-1.97,2.18-4.44,3.78-7.42,4.8-2.98,1.02-6.01,1.52-9.08,1.52-4.19,0-7.86-.69-11.02-2.08Z"></path>
    <path class="cls-1" d="M408.97,387.99c-3.75-1.91-6.75-4.64-8.99-8.21-2.24-3.57-3.37-7.78-3.37-12.64,0-4.3,1.03-8.29,3.09-11.95,2.06-3.66,4.89-6.55,8.48-8.67,3.6-2.12,7.58-3.18,11.95-3.18,4,0,7.67,1.06,11.02,3.18,3.35,2.12,6.01,4.98,7.98,8.58,1.97,3.6,2.95,7.49,2.95,11.67,0,.98-.03,1.83-.09,2.54-.06.71-.12,1.18-.18,1.43h-34.59c.74,3.51,2.4,6.23,4.98,8.16,2.58,1.94,5.65,2.9,9.22,2.9,2.34,0,4.64-.34,6.92-1.02,2.27-.68,4.33-1.66,6.18-2.95l4.06,7.56c-2.58,1.78-5.37,3.14-8.35,4.06-2.99.92-5.98,1.38-8.99,1.38-4.43,0-8.52-.95-12.27-2.86ZM427.88,355.3c-2.34-2-5.11-3-8.3-3-2.95,0-5.6,1-7.93,3-2.34,2-3.85,4.63-4.52,7.89h25c-.49-3.26-1.91-5.89-4.24-7.89Z"></path>
    <path class="cls-1" d="M456.71,387.67c-3.23-2.12-5.74-4.98-7.52-8.58-1.78-3.6-2.67-7.58-2.67-11.94s.89-8.36,2.67-11.99c1.78-3.63,4.29-6.5,7.52-8.62,3.23-2.12,6.87-3.18,10.93-3.18,3.08,0,5.93.59,8.58,1.75,2.64,1.17,4.85,2.83,6.64,4.98v-5.81h10.24v45.66h-10.24v-5.72c-1.78,2.15-4,3.8-6.64,4.93-2.65,1.14-5.51,1.71-8.58,1.71-4.06,0-7.7-1.06-10.93-3.18ZM479.26,377.11c2.4-2.58,3.6-5.9,3.6-9.96s-1.2-7.32-3.6-9.96c-2.4-2.64-5.41-3.97-9.04-3.97-3.87,0-7.06,1.32-9.55,3.97-2.49,2.65-3.73,5.97-3.73,9.96s1.25,7.3,3.73,9.92c2.49,2.61,5.67,3.92,9.55,3.92,3.63,0,6.64-1.29,9.04-3.87Z"></path>
    <path class="cls-1" d="M514.58,344.27v9.04c1.05-2.71,2.93-5.04,5.67-7.01,2.74-1.97,6.35-2.95,10.84-2.95v11.16c-5.23,0-9.29,1.35-12.18,4.06-2.89,2.71-4.33,6.95-4.33,12.73v18.63h-10.24v-45.66h10.24Z"></path>
    <path class="cls-1" d="M543.41,387.72c-3.72-2.09-6.66-4.95-8.81-8.58-2.15-3.63-3.23-7.62-3.23-11.99s1.07-8.36,3.23-11.99c2.15-3.63,5.09-6.5,8.81-8.62,3.72-2.12,7.79-3.18,12.22-3.18,3.08,0,6.01.51,8.81,1.52,2.8,1.02,5.3,2.48,7.52,4.38l-6.36,7.29c-2.4-2.21-5.66-3.32-9.78-3.32s-7.41,1.31-10.05,3.92c-2.64,2.62-3.96,5.95-3.96,10.01s1.3,7.3,3.92,9.92c2.61,2.61,6.07,3.92,10.38,3.92,2.15,0,4.21-.35,6.18-1.06s3.63-1.68,4.98-2.91l5.63,7.75c-2.28,1.91-4.91,3.4-7.89,4.47-2.99,1.07-6.1,1.61-9.36,1.61-4.43,0-8.5-1.04-12.22-3.14Z"></path>
    <path class="cls-1" d="M589.29,329.24v21.58c1.6-2.46,3.66-4.32,6.18-5.58,2.52-1.26,5.35-1.89,8.49-1.89,5.78,0,9.96,1.75,12.54,5.26,2.58,3.5,3.87,8.55,3.87,15.13v26.19h-10.24v-24.9c0-4-.69-6.96-2.08-8.9-1.38-1.94-3.89-2.91-7.51-2.91s-6.18,1.2-8.21,3.6c-2.03,2.4-3.05,5.44-3.05,9.13v23.98h-10.24v-60.69h10.24Z"></path>
    <path class="cls-1" d="M257.94,464.55c-4.79-2.74-8.56-6.46-11.3-11.16-2.74-4.7-4.11-9.88-4.11-15.54s1.37-10.84,4.11-15.54c2.74-4.7,6.5-8.42,11.3-11.16,4.8-2.74,10.15-4.1,16.05-4.1,3.94,0,7.63.63,11.07,1.89,3.44,1.26,6.58,3.03,9.41,5.3l-6.37,7.29c-3.81-3.2-8.48-4.8-14.02-4.8-3.81,0-7.28.95-10.38,2.86-3.1,1.91-5.55,4.47-7.33,7.7-1.78,3.23-2.67,6.75-2.67,10.56s.89,7.33,2.67,10.56c1.78,3.23,4.23,5.8,7.33,7.7,3.1,1.91,6.57,2.86,10.38,2.86,3.07,0,5.95-.64,8.62-1.94,2.67-1.29,4.93-3.07,6.78-5.35v-10.33h-10.98v-8.95h21.31v23.34c-2.71,4-6.34,7.15-10.89,9.45-4.55,2.31-9.53,3.46-14.94,3.46-5.9,0-11.25-1.37-16.05-4.1Z"></path>
    <path class="cls-1" d="M320.2,422.08v9.04c1.05-2.71,2.93-5.04,5.67-7.01s6.35-2.95,10.84-2.95v11.16c-5.23,0-9.29,1.35-12.18,4.06-2.89,2.71-4.33,6.95-4.33,12.73v18.63h-10.24v-45.66h10.24Z"></path>
    <path class="cls-1" d="M350.7,465.48c-3.72-2.12-6.66-4.99-8.81-8.62-2.15-3.63-3.23-7.59-3.23-11.9s1.07-8.36,3.23-11.99c2.15-3.63,5.09-6.5,8.81-8.62,3.72-2.12,7.8-3.18,12.22-3.18s8.5,1.06,12.22,3.18c3.72,2.12,6.66,5,8.81,8.62,2.15,3.63,3.23,7.63,3.23,11.99s-1.08,8.27-3.23,11.9c-2.15,3.63-5.09,6.5-8.81,8.62-3.72,2.12-7.79,3.18-12.22,3.18s-8.5-1.06-12.22-3.18ZM369.98,456.99c2.12-1.2,3.78-2.86,4.98-4.98,1.2-2.12,1.8-4.47,1.8-7.06s-.6-5.03-1.8-7.15c-1.2-2.12-2.86-3.78-4.98-4.98-2.12-1.2-4.47-1.8-7.05-1.8s-4.94.6-7.06,1.8c-2.12,1.2-3.78,2.86-4.98,4.98-1.2,2.12-1.8,4.51-1.8,7.15s.6,4.94,1.8,7.06c1.2,2.12,2.86,3.78,4.98,4.98,2.12,1.2,4.47,1.8,7.06,1.8s4.93-.6,7.05-1.8Z"></path>
    <path class="cls-1" d="M398.29,463.91c-2.61-3.17-3.92-7.85-3.92-14.07v-27.76h10.24v26.29c0,3.57.8,6.2,2.4,7.89,1.6,1.69,4,2.54,7.2,2.54,3.38,0,6.04-1.21,7.98-3.64,1.94-2.43,2.91-5.36,2.91-8.81v-24.26h10.24v45.66h-9.69v-7.01c-1.35,2.4-3.41,4.32-6.18,5.76-2.77,1.44-5.6,2.17-8.49,2.17-5.84,0-10.07-1.58-12.68-4.75Z"></path>
    <path class="cls-1" d="M454.51,422.08v5.72c1.84-2.15,4.12-3.8,6.82-4.94,2.71-1.14,5.66-1.71,8.86-1.71,4.06,0,7.7,1.06,10.93,3.18,3.23,2.12,5.73,4.98,7.52,8.58,1.78,3.6,2.67,7.58,2.67,11.94s-.89,8.36-2.67,11.99c-1.78,3.63-4.29,6.5-7.52,8.62-3.23,2.12-6.87,3.18-10.93,3.18-3.08,0-5.93-.58-8.58-1.75-2.64-1.17-4.86-2.83-6.64-4.98v19h-10.24v-58.85h9.78ZM477.16,454.82c2.49-2.64,3.73-5.96,3.73-9.96s-1.24-7.3-3.73-9.92c-2.49-2.61-5.67-3.92-9.55-3.92-3.63,0-6.64,1.29-9.04,3.88-2.4,2.58-3.6,5.9-3.6,9.96s1.2,7.32,3.6,9.96c2.4,2.65,5.41,3.97,9.04,3.97,3.88,0,7.06-1.32,9.55-3.97Z"></path>
  </g>
  <g>
    <g>
      <path class="cls-1" d="M218.57,48.65c-1.11-.89-2.24-1.78-3.37-2.64h-14.98c6.5,4.36,12.78,9.14,18.77,14.39v-11.4c-.14-.12-.28-.24-.42-.34ZM97.21,388.3h-.52c-17.42,0-34.29-2.4-50.32-6.88v9.04c16.07,4.3,32.92,6.58,50.32,6.58h.54c46.04-.14,88.38-16.23,121.77-43.09v-11.36c-32.68,28.36-75.24,45.59-121.79,45.72Z"></path>
      <path class="cls-1" d="M177.11,46h-19.38c20.79,8.23,39.88,20.73,56.23,37,1.72,1.72,3.39,3.45,5.03,5.23v-11.63c-12.57-12.39-26.66-22.67-41.88-30.6ZM96.72,368.27h-.44c-17.38,0-34.15-2.66-49.91-7.63v8.46c15.82,4.74,32.58,7.27,49.91,7.27h.46c47.55-.12,90.7-19.3,122.25-50.34v-11.63c-30.42,33-73.95,53.75-122.27,53.87Z"></path>
      <path class="cls-1" d="M204.81,91.6c-29.21-29.04-67.88-45.03-108.93-45.03h-.44c-16.93.04-33.46,2.81-49.07,8.09v7.91c15.42-5.53,31.83-8.46,48.68-8.54h.42c39.28-.16,76.23,15.14,104.09,42.85,7.37,7.33,13.87,15.28,19.44,23.76v-12.86c-4.32-5.67-9.04-11.08-14.19-16.19ZM96.26,348.27h-.4c-17.36,0-34.01-3.03-49.49-8.56v7.87c15.54,5.27,32.19,8.13,49.49,8.13h.42c42.55-.12,81.16-17.5,109.11-45.61,4.88-4.9,9.43-10.13,13.6-15.64v-12.92c-26.22,40.04-71.41,66.59-122.74,66.73Z"></path>
      <path class="cls-1" d="M189.95,105.95c-25.33-25.19-58.88-39.05-94.5-39.05h-.38c-16.93.04-33.38,3.23-48.7,9.26v7.37c15.12-6.36,31.47-9.73,48.36-9.81h.38c33.99-.14,65.94,13.1,90.04,37.08,16.75,16.65,28.32,37.16,33.85,59.52v-21.48c-6.68-15.82-16.49-30.38-29.04-42.89ZM95.78,328.25h-.34c-17.38,0-33.95-3.51-49.07-9.85v7.37c15.22,5.99,31.77,9.3,49.07,9.3h.36c36.92-.1,70.38-15.18,94.66-39.56,12.05-12.13,21.8-26.52,28.54-42.47v-21.54c-13.68,55.34-63.7,96.58-123.22,96.74Z"></path>
      <path class="cls-1" d="M175.1,120.3c-21.48-21.35-49.89-33.08-80.07-33.08h-.32c-16.99.04-33.4,3.79-48.34,10.9v6.88c14.71-7.49,31.06-11.52,48.06-11.61.1-.02.2-.02.3-.02,28.72-.1,55.69,11.1,76.01,31.3,20.32,20.22,31.63,47.15,31.71,75.83.14,59.24-47.92,107.56-107.13,107.72h-.3c-17.48,0-34.03-4.2-48.64-11.67v6.88c14.77,7.04,31.26,10.96,48.64,10.96h.3c31.26-.08,59.62-12.84,80.19-33.5,20.59-20.69,33.2-49.13,33.1-80.39-.08-30.32-11.97-58.79-33.5-80.21Z"></path>
      <path class="cls-1" d="M160.22,134.65c-17.58-17.5-40.89-27.13-65.62-27.13h-.26c-17.2.04-33.67,4.72-47.98,13.46v6.56c14.05-9.32,30.5-14.39,47.75-14.49h.24c23.43-.08,45.41,9.06,61.96,25.53,16.55,16.47,25.77,38.41,25.83,61.82.14,48.28-39.06,87.68-87.33,87.82h-.24c-17.8,0-34.37-5.35-48.22-14.51v6.54c14.11,8.6,30.62,13.5,48.22,13.5h.26c25.59-.08,48.84-10.52,65.72-27.47,16.89-16.97,27.21-40.29,27.15-65.9-.08-24.85-9.83-48.18-27.49-65.74Z"></path>
      <path class="cls-1" d="M145.37,149c-13.72-13.64-31.89-21.15-51.19-21.15h-.2c-17.68.04-34.41,6.38-47.61,17.96v6.7c12.68-12.61,29.49-19.68,47.43-19.78h.2c18.12-.06,35.12,7.02,47.92,19.74,12.78,12.72,19.94,29.69,19.98,47.81.1,37.34-30.19,67.82-67.55,67.92h-.18c-18.63,0-35.54-7.57-47.79-19.8v6.68c12.84,11.26,29.59,18.02,47.79,18.02h.2c19.94-.06,38.09-8.19,51.27-21.43,13.2-13.26,21.21-31.45,21.17-51.41-.06-19.38-7.67-37.58-21.43-51.27Z"></path>
      <path class="cls-1" d="M130.51,163.35c-9.87-9.81-22.91-15.2-36.75-15.2h-.16c-13.91.04-26.99,5.51-36.81,15.38-4.38,4.42-7.89,9.47-10.41,14.96v14.86c1.47-10.13,6.16-19.48,13.44-26.8,8.96-8.98,20.91-14.07,33.69-14.13h.14c12.84-.04,24.85,4.99,33.87,13.97,9.02,8.96,14.09,20.97,14.13,33.79.06,26.4-21.35,47.96-47.75,48.02h-.14c-24.04,0-44.02-17.82-47.37-40.97v14.86c2.58,5.67,6.2,10.82,10.62,15.2,9.51,9.45,22.52,15.18,36.75,15.18h.14c14.31-.04,27.33-5.83,36.81-15.38,9.51-9.55,15.24-22.61,15.2-36.9-.04-13.93-5.51-26.99-15.38-36.81Z"></path>
      <path class="cls-1" d="M115.64,177.7c-5.97-5.95-13.89-9.22-22.3-9.22h-.1c-8.44.02-16.39,3.33-22.34,9.32-5.95,5.99-9.22,13.93-9.22,22.34v.08c.02,8.64,3.51,16.55,9.34,22.34,5.81,5.77,13.7,9.22,22.3,9.22h.1c8.64-.02,16.55-3.51,22.34-9.34,5.79-5.83,9.24-13.77,9.22-22.4-.02-8.46-3.35-16.39-9.34-22.34ZM93.39,228.16h-.08c-15.42,0-27.99-12.51-28.03-27.95-.02-7.55,2.95-14.59,8.17-19.84,5.23-5.25,12.21-8.23,19.74-8.28h.08c7.55-.02,14.57,2.95,19.82,8.17,5.25,5.23,8.26,12.25,8.28,19.8.04,15.46-12.51,28.06-27.97,28.1Z"></path>
      <path class="cls-1" d="M100.78,192.03c-2.12-2.1-4.9-3.25-7.87-3.25h-.04c-2.99.02-5.79,1.19-7.89,3.29-2.1,2.12-3.25,4.94-3.25,7.91s1.17,5.79,3.29,7.89,4.9,3.27,7.89,3.27h.02c2.99-.02,5.79-1.19,7.89-3.31,2.1-2.1,3.27-4.92,3.25-7.91,0-2.97-1.17-5.77-3.29-7.89ZM92.93,208.16h-.02c-4.52,0-8.19-3.65-8.19-8.17-.02-4.52,3.65-8.19,8.15-8.21h.04c4.5,0,8.17,3.65,8.17,8.17.02,4.52-3.65,8.19-8.15,8.21Z"></path>
    </g>
    <polygon class="cls-1" points="219 60.4 218.99 45.99 200.36 45.99 219 60.4"></polygon>
    <path class="cls-1" d="M219,368.44v105.74H46.37v-72.18c16.23,4.14,33.24,6.32,50.74,6.32h.57c45.35-.12,87.29-14.92,121.32-39.88Z"></path>
  </g>
</svg>