<?xml version="1.0"?>
<svg id="Ebene_1" data-name="Ebene 1" xmlns="http://www.w3.org/2000/svg" viewBox="0 0 108.7 291.32">
  <defs>
    
  </defs>
  <g>
    <g>
      <path class="cls-1" d="M96.93,12.57c-.55-.44-1.11-.88-1.67-1.31h-7.42c3.22,2.16,6.33,4.53,9.3,7.13v-5.65c-.07-.06-.14-.12-.21-.17ZM36.8,180.85h-.26c-8.63,0-16.99-1.19-24.93-3.41v4.48c7.96,2.13,16.31,3.26,24.93,3.26h.27c22.81-.07,43.79-8.04,60.33-21.35v-5.63c-16.19,14.05-37.28,22.59-60.34,22.65Z"></path>
      <path class="cls-1" d="M76.39,11.26h-9.6c10.3,4.08,19.76,10.27,27.86,18.33.85.85,1.68,1.71,2.49,2.59v-5.76c-6.23-6.14-13.21-11.23-20.75-15.16ZM36.56,170.93h-.22c-8.61,0-16.92-1.32-24.73-3.78v4.19c7.84,2.35,16.14,3.6,24.73,3.6h.23c23.56-.06,44.94-9.56,60.57-24.94v-5.76c-15.07,16.35-36.64,26.63-60.58,26.69Z"></path>
      <path class="cls-1" d="M90.11,33.85c-14.47-14.39-33.63-22.31-53.97-22.31h-.22c-8.39.02-16.58,1.39-24.31,4.01v3.92c7.64-2.74,15.77-4.19,24.12-4.23h.21c19.46-.08,37.77,7.5,51.57,21.23,3.65,3.63,6.87,7.57,9.63,11.77v-6.37c-2.14-2.81-4.48-5.49-7.03-8.02ZM36.33,161.02h-.2c-8.6,0-16.85-1.5-24.52-4.24v3.9c7.7,2.61,15.95,4.03,24.52,4.03h.21c21.08-.06,40.21-8.67,54.06-22.6,2.42-2.43,4.67-5.02,6.74-7.75v-6.4c-12.99,19.84-35.38,32.99-60.81,33.06Z"></path>
      <path class="cls-1" d="M82.75,40.96c-12.55-12.48-29.17-19.35-46.82-19.35h-.19c-8.39.02-16.54,1.6-24.13,4.59v3.65c7.49-3.15,15.59-4.82,23.96-4.86h.19c16.84-.07,32.67,6.49,44.61,18.37,8.3,8.25,14.03,18.41,16.77,29.49v-10.64c-3.31-7.84-8.17-15.05-14.39-21.25ZM36.09,151.1h-.17c-8.61,0-16.82-1.74-24.31-4.88v3.65c7.54,2.97,15.74,4.61,24.31,4.61h.18c18.29-.05,34.87-7.52,46.9-19.6,5.97-6.01,10.8-13.14,14.14-21.04v-10.67c-6.78,27.42-31.56,47.85-61.05,47.93Z"></path>
      <path class="cls-1" d="M75.39,48.07c-10.64-10.58-24.72-16.39-39.67-16.39h-.16c-8.42.02-16.55,1.88-23.95,5.4v3.41c7.29-3.71,15.39-5.71,23.81-5.75.05-.01.1-.01.15-.01,14.23-.05,27.59,5.5,37.66,15.51,10.07,10.02,15.67,23.36,15.71,37.57.07,29.35-23.74,53.29-53.08,53.37h-.15c-8.66,0-16.86-2.08-24.1-5.78v3.41c7.32,3.49,15.49,5.43,24.1,5.43h.15c15.49-.04,29.54-6.36,39.73-16.6,10.2-10.25,16.45-24.34,16.4-39.83-.04-15.02-5.93-29.13-16.6-39.74Z"></path>
      <path class="cls-1" d="M68.02,55.18c-8.71-8.67-20.26-13.44-32.51-13.44h-.13c-8.52.02-16.68,2.34-23.77,6.67v3.25c6.96-4.62,15.11-7.13,23.66-7.18h.12c11.61-.04,22.5,4.49,30.7,12.65,8.2,8.16,12.77,19.03,12.8,30.63.07,23.92-19.35,43.44-43.27,43.51h-.12c-8.82,0-17.03-2.65-23.89-7.19v3.24c6.99,4.26,15.17,6.69,23.89,6.69h.13c12.68-.04,24.2-5.21,32.56-13.61,8.37-8.41,13.48-19.96,13.45-32.65-.04-12.31-4.87-23.87-13.62-32.57Z"></path>
      <path class="cls-1" d="M60.66,62.29c-6.8-6.76-15.8-10.48-25.36-10.48h-.1c-8.76.02-17.05,3.16-23.59,8.9v3.32c6.28-6.25,14.61-9.75,23.5-9.8h.1c8.98-.03,17.4,3.48,23.74,9.78,6.33,6.3,9.88,14.71,9.9,23.69.05,18.5-14.96,33.6-33.47,33.65h-.09c-9.23,0-17.61-3.75-23.68-9.81v3.31c6.36,5.58,14.66,8.93,23.68,8.93h.1c9.88-.03,18.87-4.06,25.4-10.62,6.54-6.57,10.51-15.58,10.49-25.47-.03-9.6-3.8-18.62-10.62-25.4Z"></path>
      <path class="cls-1" d="M53.3,69.4c-4.89-4.86-11.35-7.53-18.21-7.53h-.08c-6.89.02-13.37,2.73-18.24,7.62-2.17,2.19-3.91,4.69-5.16,7.41v7.36c.73-5.02,3.05-9.65,6.66-13.28,4.44-4.45,10.36-6.97,16.69-7h.07c6.36-.02,12.31,2.47,16.78,6.92,4.47,4.44,6.98,10.39,7,16.74.03,13.08-10.58,23.76-23.66,23.79h-.07c-11.91,0-21.81-8.83-23.47-20.3v7.36c1.28,2.81,3.07,5.36,5.26,7.53,4.71,4.68,11.16,7.52,18.21,7.52h.07c7.09-.02,13.54-2.89,18.24-7.62,4.71-4.73,7.55-11.2,7.53-18.28-.02-6.9-2.73-13.37-7.62-18.24Z"></path>
      <path class="cls-1" d="M45.93,76.51c-2.96-2.95-6.88-4.57-11.05-4.57h-.05c-4.18.01-8.12,1.65-11.07,4.62-2.95,2.97-4.57,6.9-4.57,11.07v.04c.01,4.28,1.74,8.2,4.63,11.07,2.88,2.86,6.79,4.57,11.05,4.57h.05c4.28,0,8.2-1.74,11.07-4.63,2.87-2.89,4.58-6.82,4.57-11.1-.01-4.19-1.66-8.12-4.63-11.07ZM34.91,101.51h-.04c-7.64,0-13.87-6.2-13.89-13.85,0-3.74,1.46-7.23,4.05-9.83,2.59-2.6,6.05-4.08,9.78-4.1h.04c3.74-.01,7.22,1.46,9.82,4.05,2.6,2.59,4.09,6.07,4.1,9.81.02,7.66-6.2,13.9-13.86,13.92Z"></path>
      <path class="cls-1" d="M38.57,83.61c-1.05-1.04-2.43-1.61-3.9-1.61h-.02c-1.48.01-2.87.59-3.91,1.63-1.04,1.05-1.61,2.45-1.61,3.92s.58,2.87,1.63,3.91,2.43,1.62,3.91,1.62h.01c1.48-.01,2.87-.59,3.91-1.64,1.04-1.04,1.62-2.44,1.61-3.92,0-1.47-.58-2.86-1.63-3.91ZM34.68,91.6h-.01c-2.24,0-4.06-1.81-4.06-4.05,0-2.24,1.81-4.06,4.04-4.07h.02c2.23,0,4.05,1.81,4.05,4.05,0,2.24-1.81,4.06-4.04,4.07Z"></path>
    </g>
    <polygon class="cls-1" points="97.14 18.39 97.13 11.25 87.9 11.25 97.14 18.39"></polygon>
    <path class="cls-1" d="M97.14,171.01v52.39H11.61v-35.76c8.04,2.05,16.47,3.13,25.14,3.13h.28c22.47-.06,43.25-7.39,60.11-19.76Z"></path>
  </g>
  <g>
    <path class="cls-1" d="M14.49,232.95c.85,0,1.59.18,2.23.54.64.36,1.14.84,1.49,1.45.35.61.52,1.28.52,2.01s-.17,1.4-.52,2.01c-.35.61-.85,1.09-1.49,1.45-.64.36-1.39.54-2.23.54h-3.13v-7.99h3.13ZM15.9,239.36c.43-.24.76-.57.99-.99.23-.42.35-.89.35-1.42s-.12-1-.35-1.42c-.23-.42-.57-.75-.99-.99-.43-.24-.92-.36-1.47-.36h-1.64v5.53h1.64c.55,0,1.04-.12,1.47-.36Z"></path>
    <path class="cls-1" d="M21.01,240.69c-.5-.25-.9-.62-1.2-1.1s-.45-1.04-.45-1.69c0-.58.14-1.11.41-1.6.28-.49.65-.88,1.13-1.16.48-.28,1.01-.43,1.6-.43.53,0,1.03.14,1.47.43.45.28.8.67,1.07,1.15.26.48.39,1,.39,1.56,0,.13,0,.24-.01.34,0,.09-.02.16-.02.19h-4.63c.1.47.32.83.67,1.09.35.26.76.39,1.23.39.31,0,.62-.05.93-.14.3-.09.58-.22.83-.39l.54,1.01c-.35.24-.72.42-1.12.54-.4.12-.8.18-1.2.18-.59,0-1.14-.13-1.64-.38ZM23.54,236.32c-.31-.27-.68-.4-1.11-.4-.39,0-.75.13-1.06.4-.31.27-.51.62-.6,1.05h3.34c-.07-.44-.25-.79-.57-1.05Z"></path>
    <path class="cls-1" d="M27.06,240.55c-.3-.35-.46-.87-.46-1.57v-3.02h-.9v-1.12h.9v-1.2l1.37-.28v1.48h1.84v1.12h-1.84v3.06c0,.3.06.52.18.66s.28.2.47.2c.14,0,.28-.02.41-.07s.24-.09.32-.14c.08-.05.14-.08.16-.09l.41,1.02c-.47.3-.96.46-1.47.46-.63,0-1.09-.17-1.39-.52Z"></path>
    <path class="cls-1" d="M31.81,240.69c-.5-.25-.9-.62-1.2-1.1s-.45-1.04-.45-1.69c0-.58.14-1.11.41-1.6.28-.49.65-.88,1.13-1.16.48-.28,1.01-.43,1.6-.43.53,0,1.03.14,1.47.43.45.28.8.67,1.07,1.15.26.48.39,1,.39,1.56,0,.13,0,.24-.01.34,0,.09-.02.16-.02.19h-4.63c.1.47.32.83.67,1.09.35.26.76.39,1.23.39.31,0,.62-.05.93-.14.3-.09.58-.22.83-.39l.54,1.01c-.35.24-.72.42-1.12.54-.4.12-.8.18-1.2.18-.59,0-1.14-.13-1.64-.38ZM34.34,236.32c-.31-.27-.68-.4-1.11-.4-.39,0-.75.13-1.06.4-.31.27-.51.62-.6,1.05h3.34c-.07-.44-.25-.79-.57-1.05Z"></path>
    <path class="cls-1" d="M38.88,234.84v1.21c.14-.36.39-.67.76-.94.37-.26.85-.39,1.45-.39v1.49c-.7,0-1.24.18-1.63.54-.39.36-.58.93-.58,1.7v2.49h-1.37v-6.11h1.37Z"></path>
    <path class="cls-1" d="M43.53,234.84v.9c.16-.3.41-.54.74-.73.33-.19.68-.29,1.05-.29.48,0,.88.1,1.2.3.32.2.56.49.73.86.2-.35.49-.62.86-.84.38-.21.76-.32,1.13-.32,1.55,0,2.32.9,2.32,2.71v3.52h-1.37v-3.33c0-.5-.09-.89-.26-1.17-.17-.28-.51-.41-1-.41-.43,0-.76.15-1.01.44-.25.29-.37.65-.37,1.08v3.39h-1.37v-3.33c0-.5-.09-.89-.26-1.17-.17-.28-.51-.41-1-.41-.44,0-.78.16-1.02.47-.25.31-.37.69-.37,1.13v3.31h-1.37v-6.11h1.37Z"></path>
    <path class="cls-1" d="M53.05,233.71c-.16-.16-.24-.36-.24-.59s.08-.43.24-.59.36-.25.59-.25.43.08.59.25.25.36.25.59-.08.43-.25.59-.36.24-.59.24-.43-.08-.59-.24ZM54.32,234.84v6.11h-1.37v-6.11h1.37Z"></path>
    <path class="cls-1" d="M57.17,234.84v.88c.22-.33.5-.58.84-.75.34-.17.72-.25,1.14-.25.79,0,1.35.24,1.69.71s.51,1.15.51,2.02v3.5h-1.37v-3.33c0-.54-.09-.94-.26-1.2-.17-.25-.5-.38-.99-.38-.45,0-.82.16-1.12.48s-.44.73-.44,1.23v3.2h-1.37v-6.11h1.37Z"></path>
    <path class="cls-1" d="M62.83,233.71c-.16-.16-.24-.36-.24-.59s.08-.43.24-.59.36-.25.59-.25.43.08.59.25.25.36.25.59-.08.43-.25.59-.36.24-.59.24-.43-.08-.59-.24ZM64.1,234.84v6.11h-1.37v-6.11h1.37Z"></path>
    <path class="cls-1" d="M66.25,240.79c-.42-.18-.75-.39-.98-.61l.52-1.12c.6.49,1.25.73,1.94.73.31,0,.59-.06.84-.17.25-.11.37-.27.37-.47,0-.17-.08-.3-.25-.39-.16-.09-.35-.16-.56-.22-.21-.06-.35-.09-.41-.11-.47-.13-.85-.26-1.15-.39-.3-.13-.54-.31-.72-.55-.18-.23-.28-.54-.28-.92s.11-.71.34-.99.52-.49.87-.64.72-.22,1.09-.22c.43,0,.81.05,1.14.15.33.1.68.26,1.04.47l-.51,1.11c-.53-.3-1.09-.46-1.67-.46-.24,0-.45.05-.64.15-.18.1-.28.23-.28.38,0,.19.08.32.25.4.17.08.43.15.8.23.69.15,1.25.37,1.68.67s.64.73.64,1.3c0,.44-.13.81-.39,1.1s-.59.51-.99.64c-.4.14-.8.2-1.22.2-.56,0-1.05-.09-1.47-.28Z"></path>
    <path class="cls-1" d="M72.36,240.55c-.3-.35-.46-.87-.46-1.57v-3.02h-.9v-1.12h.9v-1.2l1.37-.28v1.48h1.84v1.12h-1.84v3.06c0,.3.06.52.18.66s.28.2.47.2c.14,0,.28-.02.41-.07s.24-.09.32-.14c.08-.05.14-.08.16-.09l.41,1.02c-.47.3-.96.46-1.47.46-.63,0-1.09-.17-1.39-.52Z"></path>
    <path class="cls-1" d="M76.34,233.71c-.16-.16-.24-.36-.24-.59s.08-.43.24-.59.36-.25.59-.25.43.08.59.25.25.36.25.59-.08.43-.25.59-.36.24-.59.24-.43-.08-.59-.24ZM77.61,234.84v6.11h-1.37v-6.11h1.37Z"></path>
    <path class="cls-1" d="M80,240.65c-.5-.28-.89-.66-1.18-1.15-.29-.49-.43-1.02-.43-1.6s.14-1.12.43-1.6c.29-.49.68-.87,1.18-1.15s1.04-.43,1.63-.43c.41,0,.8.07,1.18.2.37.14.71.33,1.01.59l-.85.97c-.32-.3-.76-.44-1.31-.44s-.99.17-1.34.52c-.35.35-.53.8-.53,1.34s.17.98.52,1.33c.35.35.81.52,1.39.52.29,0,.56-.05.83-.14.26-.09.49-.22.67-.39l.75,1.04c-.3.26-.66.45-1.05.6-.4.14-.82.22-1.25.22-.59,0-1.14-.14-1.63-.42Z"></path>
    <path class="cls-1" d="M13.06,251.11c-.64-.37-1.15-.87-1.51-1.5-.37-.63-.55-1.33-.55-2.08s.18-1.44.55-2.07c.37-.63.87-1.13,1.51-1.49.64-.37,1.36-.55,2.15-.55.51,0,1,.08,1.46.25s.87.39,1.23.69l-.83.96c-.52-.4-1.11-.6-1.76-.6-.53,0-1.02.13-1.45.38s-.77.6-1.01,1.02c-.24.43-.36.9-.36,1.41s.12.98.36,1.42c.24.44.57.78.98,1.04.42.25.88.38,1.39.38.39,0,.75-.07,1.1-.2.35-.14.65-.33.91-.59l.88.99c-.38.35-.82.61-1.31.81-.5.19-1.03.29-1.59.29-.79,0-1.5-.18-2.15-.55Z"></path>
    <path class="cls-1" d="M19.95,251.24c-.5-.28-.89-.67-1.18-1.15-.29-.49-.43-1.02-.43-1.59s.14-1.12.43-1.6c.29-.49.68-.87,1.18-1.15.5-.28,1.04-.43,1.63-.43s1.14.14,1.63.43.89.67,1.18,1.15c.29.49.43,1.02.43,1.6s-.14,1.11-.43,1.59c-.29.49-.68.87-1.18,1.15-.5.28-1.04.43-1.63.43s-1.14-.14-1.63-.43ZM22.53,250.1c.28-.16.51-.38.67-.67.16-.28.24-.6.24-.94s-.08-.67-.24-.96-.38-.51-.67-.67c-.28-.16-.6-.24-.94-.24s-.66.08-.94.24c-.28.16-.51.38-.67.67s-.24.6-.24.96.08.66.24.94c.16.28.38.51.67.67.28.16.6.24.94.24s.66-.08.94-.24Z"></path>
    <path class="cls-1" d="M27.2,245.43v.9c.16-.3.41-.54.74-.73.33-.19.68-.29,1.05-.29.48,0,.88.1,1.2.3.32.2.56.49.73.86.2-.35.49-.62.86-.84.38-.21.76-.32,1.13-.32,1.55,0,2.32.9,2.32,2.71v3.52h-1.37v-3.33c0-.5-.09-.89-.26-1.17-.17-.28-.51-.41-1-.41-.43,0-.76.15-1.01.44-.25.29-.37.65-.37,1.08v3.39h-1.37v-3.33c0-.5-.09-.89-.26-1.17-.17-.28-.51-.41-1-.41-.44,0-.78.16-1.02.47-.25.31-.37.69-.37,1.13v3.31h-1.37v-6.11h1.37Z"></path>
    <path class="cls-1" d="M37.97,245.43v.9c.16-.3.41-.54.74-.73.33-.19.68-.29,1.05-.29.48,0,.88.1,1.2.3s.56.49.73.86c.2-.35.49-.62.86-.84.38-.21.76-.32,1.14-.32,1.55,0,2.32.9,2.32,2.71v3.52h-1.37v-3.33c0-.5-.09-.89-.26-1.17-.17-.28-.51-.41-1-.41-.43,0-.76.15-1.01.44-.25.29-.37.65-.37,1.08v3.39h-1.37v-3.33c0-.5-.09-.89-.26-1.17-.17-.28-.51-.41-1-.41-.44,0-.78.16-1.02.47-.25.31-.37.69-.37,1.13v3.31h-1.37v-6.11h1.37Z"></path>
    <path class="cls-1" d="M47.81,251.03c-.35-.42-.52-1.05-.52-1.88v-3.71h1.37v3.52c0,.48.11.83.32,1.05.21.23.53.34.96.34.45,0,.81-.16,1.07-.49.26-.32.39-.72.39-1.18v-3.24h1.37v6.11h-1.3v-.94c-.18.32-.46.58-.83.77s-.75.29-1.13.29c-.78,0-1.35-.21-1.7-.64Z"></path>
    <path class="cls-1" d="M55.58,245.43v.88c.22-.33.5-.58.84-.75s.72-.25,1.13-.25c.79,0,1.35.24,1.69.71.34.47.51,1.15.51,2.02v3.5h-1.37v-3.33c0-.54-.09-.94-.26-1.2-.17-.25-.5-.38-.99-.38-.45,0-.82.16-1.12.48-.29.32-.44.73-.44,1.23v3.2h-1.37v-6.11h1.37Z"></path>
    <path class="cls-1" d="M61.22,244.3c-.16-.16-.24-.36-.24-.59s.08-.43.24-.59.36-.25.59-.25.43.08.59.25.25.36.25.59-.08.43-.25.59-.36.24-.59.24-.43-.08-.59-.24ZM62.49,245.43v6.11h-1.37v-6.11h1.37Z"></path>
    <path class="cls-1" d="M65.08,251.24c-.5-.28-.89-.66-1.18-1.15-.29-.49-.43-1.02-.43-1.6s.14-1.12.43-1.6c.29-.49.68-.87,1.18-1.15s1.04-.43,1.63-.43c.41,0,.8.07,1.18.2.37.14.71.33,1.01.59l-.85.97c-.32-.3-.76-.44-1.31-.44s-.99.17-1.34.52c-.35.35-.53.8-.53,1.34s.17.98.52,1.33c.35.35.81.52,1.39.52.29,0,.56-.05.83-.14.26-.09.49-.22.67-.39l.75,1.04c-.3.26-.66.45-1.05.6-.4.14-.82.22-1.25.22-.59,0-1.14-.14-1.63-.42Z"></path>
    <path class="cls-1" d="M70.78,251.24c-.43-.28-.77-.67-1.01-1.15-.24-.48-.36-1.01-.36-1.6s.12-1.12.36-1.6c.24-.49.57-.87,1.01-1.15s.92-.43,1.46-.43c.41,0,.79.08,1.15.23.35.16.65.38.89.67v-.78h1.37v6.11h-1.37v-.76c-.24.29-.53.51-.89.66-.35.15-.74.23-1.15.23-.54,0-1.03-.14-1.46-.43ZM73.79,249.82c.32-.35.48-.79.48-1.33s-.16-.98-.48-1.33c-.32-.35-.72-.53-1.21-.53-.52,0-.94.18-1.28.53-.33.35-.5.8-.5,1.33s.17.98.5,1.33.76.52,1.28.52c.49,0,.89-.17,1.21-.52Z"></path>
    <path class="cls-1" d="M77.94,251.14c-.3-.35-.46-.87-.46-1.57v-3.02h-.9v-1.12h.9v-1.2l1.37-.28v1.48h1.84v1.12h-1.84v3.06c0,.3.06.52.18.66s.28.2.47.2c.14,0,.28-.02.41-.07s.24-.09.32-.14c.08-.05.14-.08.16-.09l.41,1.02c-.47.3-.96.46-1.47.46-.63,0-1.09-.17-1.39-.52Z"></path>
    <path class="cls-1" d="M81.89,244.3c-.16-.16-.24-.36-.24-.59s.08-.43.24-.59.36-.25.59-.25.43.08.59.25.25.36.25.59-.08.43-.25.59-.36.24-.59.24-.43-.08-.59-.24ZM83.17,245.43v6.11h-1.37v-6.11h1.37Z"></path>
    <path class="cls-1" d="M85.78,251.24c-.5-.28-.89-.67-1.18-1.15-.29-.49-.43-1.02-.43-1.59s.14-1.12.43-1.6c.29-.49.68-.87,1.18-1.15s1.04-.43,1.63-.43,1.14.14,1.63.43.89.67,1.18,1.15c.29.49.43,1.02.43,1.6s-.14,1.11-.43,1.59c-.29.49-.68.87-1.18,1.15-.5.28-1.04.43-1.63.43s-1.14-.14-1.63-.43ZM88.36,250.1c.28-.16.51-.38.67-.67.16-.28.24-.6.24-.94s-.08-.67-.24-.96-.38-.51-.67-.67c-.28-.16-.6-.24-.94-.24s-.66.08-.94.24c-.28.16-.51.38-.67.67s-.24.6-.24.96.08.66.24.94c.16.28.38.51.67.67.28.16.6.24.94.24s.66-.08.94-.24Z"></path>
    <path class="cls-1" d="M93.03,245.43v.88c.22-.33.5-.58.84-.75s.72-.25,1.13-.25c.79,0,1.35.24,1.69.71.34.47.51,1.15.51,2.02v3.5h-1.37v-3.33c0-.54-.09-.94-.26-1.2-.17-.25-.5-.38-.99-.38-.45,0-.82.16-1.12.48-.29.32-.44.73-.44,1.23v3.2h-1.37v-6.11h1.37Z"></path>
    <path class="cls-1" d="M14.71,254.06c.74,0,1.38.14,1.91.41.53.27.93.64,1.2,1.1.27.46.41.98.41,1.55s-.14,1.06-.43,1.52c-.29.46-.69.82-1.21,1.07l1.76,2.34h-1.67l-1.39-1.95c-.25.04-.49.06-.72.06h-1.81v1.89h-1.43v-7.99h3.38ZM15.77,258.69c.3-.16.53-.38.7-.66.16-.28.25-.58.25-.91s-.08-.65-.25-.93c-.16-.28-.39-.5-.69-.67s-.63-.25-1-.25h-2.02v3.65h2.01c.37,0,.71-.08,1.01-.24Z"></path>
    <path class="cls-1" d="M20.51,261.79c-.5-.25-.9-.62-1.2-1.1s-.45-1.04-.45-1.69c0-.58.14-1.11.41-1.6.28-.49.65-.88,1.13-1.16.48-.28,1.01-.43,1.6-.43.53,0,1.03.14,1.47.43.45.28.8.67,1.07,1.15.26.48.39,1,.39,1.56,0,.13,0,.24-.01.34,0,.09-.02.16-.02.19h-4.63c.1.47.32.83.67,1.09.35.26.76.39,1.23.39.31,0,.62-.05.93-.14.3-.09.58-.22.83-.39l.54,1.01c-.35.24-.72.42-1.12.54-.4.12-.8.18-1.2.18-.59,0-1.14-.13-1.64-.38ZM23.03,257.42c-.31-.27-.68-.4-1.11-.4-.39,0-.75.13-1.06.4-.31.27-.51.62-.6,1.05h3.34c-.07-.44-.25-.79-.57-1.05Z"></path>
    <path class="cls-1" d="M26.64,261.9c-.42-.18-.75-.39-.98-.61l.52-1.12c.6.49,1.25.73,1.94.73.31,0,.59-.06.84-.17.25-.11.37-.27.37-.47,0-.17-.08-.3-.25-.39-.16-.09-.35-.16-.56-.22-.21-.06-.35-.09-.41-.11-.47-.13-.85-.26-1.15-.39-.3-.13-.54-.31-.72-.55-.18-.23-.28-.54-.28-.92s.11-.71.34-.99c.23-.28.52-.49.87-.64.35-.14.72-.22,1.09-.22.43,0,.81.05,1.14.15.33.1.68.26,1.04.47l-.51,1.11c-.53-.3-1.09-.46-1.67-.46-.24,0-.45.05-.64.15s-.28.23-.28.38c0,.19.08.32.25.4.17.08.43.15.8.23.69.15,1.25.37,1.68.67s.64.73.64,1.3c0,.44-.13.81-.39,1.1s-.59.51-.99.64-.8.2-1.21.2c-.56,0-1.05-.09-1.47-.28Z"></path>
    <path class="cls-1" d="M33.14,261.79c-.5-.25-.9-.62-1.2-1.1s-.45-1.04-.45-1.69c0-.58.14-1.11.41-1.6.28-.49.65-.88,1.13-1.16.48-.28,1.01-.43,1.6-.43.53,0,1.03.14,1.47.43.45.28.8.67,1.07,1.15.26.48.39,1,.39,1.56,0,.13,0,.24-.01.34,0,.09-.02.16-.02.19h-4.63c.1.47.32.83.67,1.09.35.26.76.39,1.23.39.31,0,.62-.05.93-.14.3-.09.58-.22.83-.39l.54,1.01c-.35.24-.72.42-1.12.54-.4.12-.8.18-1.2.18-.59,0-1.14-.13-1.64-.38ZM35.67,257.42c-.31-.27-.68-.4-1.11-.4-.39,0-.75.13-1.06.4-.31.27-.51.62-.6,1.05h3.34c-.07-.44-.25-.79-.57-1.05Z"></path>
    <path class="cls-1" d="M39.52,261.75c-.43-.28-.77-.67-1.01-1.15-.24-.48-.36-1.01-.36-1.6s.12-1.12.36-1.6c.24-.49.57-.87,1.01-1.15.43-.28.92-.43,1.46-.43.41,0,.79.08,1.15.23.35.16.65.38.89.67v-.78h1.37v6.11h-1.37v-.76c-.24.29-.53.51-.89.66-.35.15-.74.23-1.15.23-.54,0-1.03-.14-1.46-.43ZM42.54,260.34c.32-.35.48-.79.48-1.33s-.16-.98-.48-1.33c-.32-.35-.72-.53-1.21-.53-.52,0-.94.18-1.28.53-.33.35-.5.8-.5,1.33s.17.98.5,1.33c.33.35.76.52,1.28.52.49,0,.89-.17,1.21-.52Z"></path>
    <path class="cls-1" d="M47.26,255.95v1.21c.14-.36.39-.67.76-.94s.85-.39,1.45-.39v1.49c-.7,0-1.24.18-1.63.54s-.58.93-.58,1.7v2.49h-1.37v-6.11h1.37Z"></path>
    <path class="cls-1" d="M51.12,261.76c-.5-.28-.89-.66-1.18-1.15-.29-.49-.43-1.02-.43-1.6s.14-1.12.43-1.6c.29-.49.68-.87,1.18-1.15.5-.28,1.04-.43,1.63-.43.41,0,.8.07,1.18.2.37.14.71.33,1.01.59l-.85.97c-.32-.3-.76-.44-1.31-.44s-.99.17-1.34.52c-.35.35-.53.8-.53,1.34s.17.98.52,1.33c.35.35.81.52,1.39.52.29,0,.56-.05.83-.14s.49-.22.67-.39l.75,1.04c-.3.26-.66.45-1.05.6-.4.14-.82.22-1.25.22-.59,0-1.14-.14-1.63-.42Z"></path>
    <path class="cls-1" d="M57.25,253.94v2.89c.21-.33.49-.58.83-.75.34-.17.72-.25,1.14-.25.77,0,1.33.23,1.68.7.35.47.52,1.14.52,2.02v3.5h-1.37v-3.33c0-.53-.09-.93-.28-1.19-.18-.26-.52-.39-1.01-.39s-.83.16-1.1.48-.41.73-.41,1.22v3.21h-1.37v-8.12h1.37Z"></path>
    <path class="cls-1" d="M12.94,272.03c-.64-.37-1.14-.86-1.51-1.49s-.55-1.32-.55-2.08.18-1.45.55-2.08c.37-.63.87-1.13,1.51-1.49.64-.37,1.36-.55,2.15-.55.53,0,1.02.08,1.48.25.46.17.88.41,1.26.71l-.85.97c-.51-.43-1.13-.64-1.87-.64-.51,0-.97.13-1.39.38s-.74.6-.98,1.03c-.24.43-.36.9-.36,1.41s.12.98.36,1.41c.24.43.57.78.98,1.03s.88.38,1.39.38c.41,0,.8-.09,1.15-.26.36-.17.66-.41.91-.72v-1.38h-1.47v-1.2h2.85v3.12c-.36.53-.85.96-1.46,1.26-.61.31-1.27.46-2,.46-.79,0-1.5-.18-2.15-.55Z"></path>
    <path class="cls-1" d="M21.26,266.35v1.21c.14-.36.39-.67.76-.94s.85-.39,1.45-.39v1.49c-.7,0-1.24.18-1.63.54s-.58.93-.58,1.7v2.49h-1.37v-6.11h1.37Z"></path>
    <path class="cls-1" d="M25.34,272.16c-.5-.28-.89-.67-1.18-1.15-.29-.49-.43-1.02-.43-1.59s.14-1.12.43-1.6c.29-.49.68-.87,1.18-1.15s1.04-.43,1.63-.43,1.14.14,1.63.43.89.67,1.18,1.15c.29.49.43,1.02.43,1.6s-.14,1.11-.43,1.59c-.29.49-.68.87-1.18,1.15-.5.28-1.04.43-1.63.43s-1.14-.14-1.63-.43ZM27.92,271.02c.28-.16.51-.38.67-.67.16-.28.24-.6.24-.94s-.08-.67-.24-.96-.38-.51-.67-.67c-.28-.16-.6-.24-.94-.24s-.66.08-.94.24c-.28.16-.51.38-.67.67s-.24.6-.24.96.08.66.24.94c.16.28.38.51.67.67.28.16.6.24.94.24s.66-.08.94-.24Z"></path>
    <path class="cls-1" d="M31.71,271.95c-.35-.42-.52-1.05-.52-1.88v-3.71h1.37v3.52c0,.48.11.83.32,1.05.21.23.53.34.96.34.45,0,.81-.16,1.07-.49s.39-.72.39-1.18v-3.24h1.37v6.11h-1.3v-.94c-.18.32-.46.58-.83.77-.37.19-.75.29-1.14.29-.78,0-1.35-.21-1.7-.64Z"></path>
    <path class="cls-1" d="M39.23,266.35v.76c.25-.29.55-.51.91-.66s.76-.23,1.18-.23c.54,0,1.03.14,1.46.43s.77.67,1.01,1.15c.24.48.36,1.01.36,1.6s-.12,1.12-.36,1.6c-.24.49-.57.87-1.01,1.15-.43.28-.92.43-1.46.43-.41,0-.79-.08-1.15-.23s-.65-.38-.89-.67v2.54h-1.37v-7.87h1.31ZM42.26,270.73c.33-.35.5-.8.5-1.33s-.17-.98-.5-1.33c-.33-.35-.76-.52-1.28-.52-.49,0-.89.17-1.21.52-.32.35-.48.79-.48,1.33s.16.98.48,1.33c.32.35.72.53,1.21.53.52,0,.94-.18,1.28-.53Z"></path>
  </g>
</svg>